<?xml version="1.0" encoding="UTF-8"?>
<svg id="_レイヤー_1" data-name="レイヤー_1" xmlns="http://www.w3.org/2000/svg" version="1.1" viewBox="0 0 1920 530">
  <!-- Generator: Adobe Illustrator 29.4.0, SVG Export Plug-In . SVG Version: 2.1.0 Build 152)  -->
  <defs>
    <style>
      .st0 {
        fill: #ffe200;
      }

      .st1 {
        fill: #fff;
      }

      .st2 {
        fill: #19ceff;
      }

      .st3 {
        fill: #b2ef16;
      }

      .st4 {
        fill: #fa256e;
      }
    </style>
  </defs>
  <g>
    <path d="M254.79,99.29c130.54-8.01,217.58,133.56,153.38,247.38-56.08,99.41-196.73,112.5-270.14,24.8-87.72-104.8-18.9-263.86,116.77-272.18ZM268,115v147.5c19.65,17.49,49.51,17.36,69.51.51l.3-127.31c-1.01-3.35-19.84-10.52-24.04-11.96-7.6-2.61-16.64-5.21-24.56-6.44-7.1-1.1-14.22-.86-21.21-2.29ZM353,145v82.5c16.26,12.87,38.98,17.33,58.02,7.96-7.46-35.97-28.02-69.34-58.02-90.46ZM167,334v-182c-48.94,40.54-64.6,108.78-41.48,167.98,2.22,5.68,7.34,17.53,11.02,21.98,2.49,3.01,4.17,2.09,7.52,1.59,8.31-1.25,15.47-6.22,22.95-9.55ZM353,245v21.5c0,4.28-16.22,14.68-20.32,16.68-22.38,10.87-44.1,7.48-65.68-3.18v22.5c-23.05,23.83-57.68,27.69-86,10.5v25.5c0,6.1-28.05,17.99-34,19,49.23,61.38,136.92,75.17,202.31,30.32,43.97-30.15,70.16-84.32,63.67-137.82-20.15,9.22-41,4.16-59.99-5Z"/>
    <path d="M580,382.5c-2.43,12.13-24.03,14.46-25.99-5.01v-224.98c.51-15.28,16.94-20.28,25.2-7.22l51.29,108.71,52.64-111.35c7.4-9.45,22.88-4.06,22.89,7.81l-.1,230.97c-1.56,10.06-14.96,13.81-21.85,6.98-1.31-1.29-4.08-7.47-4.08-8.92v-169.5l-37.79,79.71c-4.95,9.13-17.11,10.32-23.06,1.64l-39.15-82.35v173.5Z"/>
    <path d="M1002,286l67.04-74.46c12.75-6.65,24.74,6.01,15.95,17.95l-47.86,53.83,49.04,89c7.3,12.9-8.56,24.65-19.2,15.2l-46.49-84.54c-1.7-.01-17.78,17.55-18.28,19.72-1.53,17.45,1.3,36.58-.18,53.82-1.74,20.26-24.2,18.84-25.07,0l.05-232.02c.75-9.26,6.53-15.55,16.28-13.3,3.88.9,8.71,7.54,8.71,11.29v143.5Z"/>
    <path d="M1562,286l67.49-74.01c11.81-7.69,24.96,4.72,16.96,16.96l-48.3,54.36,49.58,90.45c5.92,12.62-10.85,23.35-20.28,13.29-15.87-27.12-29.45-55.62-45.23-82.77-.35-.61-.03-1.96-1.7-1.27-1.11.46-15.28,15.7-16.51,17.49-.71,1.02-1.57,1.91-1.79,3.21-1.7,17.97,1.54,38.15-.16,55.84-1.35,14.09-19.19,15.43-23.11,3.01l-.93-239.04c.18-9.51,8.65-15.42,17.73-11.76,1.48.6,6.26,5.53,6.26,6.74v147.5Z"/>
    <path d="M862,287v-33.5c0-.46-2.29-5.18-2.81-6.19-6-11.45-19.8-16.74-31.97-12.6-9.25,3.15-15.59,16.26-26.74,7.3s1.07-20.51,9.6-25.44c36.36-21.01,74.41,4.8,76.96,44.88,2.34,36.79-1.87,76.02,0,113.08-.65,7.58-3.23,13.75-11.49,14.51-11.64,1.07-44,1.2-54.57-1.53-39.95-10.31-50.23-64.46-17.89-89.94,4.11-3.24,17.63-10.58,22.42-10.58h36.5ZM862,311h-33.5c-.8,0-8.23,3.72-9.44,4.56-15.02,10.5-14.95,34.36,0,44.87,1.19.84,8.65,4.56,9.44,4.56h33.5v-54Z"/>
    <path d="M1743,345.5c2.31,14.87,19.09,23.62,33.05,21.05,10.33-1.9,21.59-19.53,31.5-6.59,12.41,16.2-20.68,30.08-33.06,31.03-26.94,2.07-53.14-17.97-55.52-45.45-2.54-29.26,1.87-62.26.16-91.91,12.95-63,98.67-57.77,102.92,8.84.62,9.7.72,24.45,0,34.09-.39,5.2-2.92,15.46-9.54,15.46h-69.5c1.13,10.25-1.53,23.67,0,33.5ZM1797,288v-34.5c0-1.43-5.25-10-6.56-11.44-11.47-12.7-33.14-10.91-42.88,3.01-.84,1.2-4.56,8.64-4.56,9.44v33.5h54Z"/>
    <path d="M1423,287v-33.5c0-.46-2.29-5.18-2.81-6.19-5.97-11.38-20-16.77-32.18-12.81-8.89,2.89-16.01,17.48-27.06,7.04-9.64-9.11-.13-18.69,8.13-23.97,31.31-20,74.78-.41,77.95,36.88,3.4,39.94-2.63,84.61-.01,125.06-.78,5.63-4.95,9.02-10.48,9.52-14.89,1.37-49.6,1.47-62.57-4.52-39.25-18.11-38.89-75.76.67-93.38,1.87-.83,10.59-4.14,11.86-4.14h36.5ZM1423,311h-33.5c-.8,0-8.23,3.72-9.44,4.56-15.06,10.53-15.06,34.34,0,44.87,1.2.84,8.64,4.56,9.44,4.56h33.5v-54Z"/>
    <path d="M1242,218.5c2.44-12.18,22.47-12.13,24.02.98l-.02,159.02c-.34,5.42-4.11,9.89-9.48,10.52-10.96,1.3-45.4,1.04-55.51-1.53-22.48-5.72-36.51-26.42-38.05-48.95-2.6-38.1,1.81-79.36.3-117.78.97-13.45,19.29-15.82,23.51-3.03l.36,120.64c-1.32,9.62,12.14,26.63,21.37,26.63h33.5v-146.5Z"/>
    <path class="st1" d="M353,245c18.99,9.16,39.84,14.22,59.99,5,6.49,53.49-19.71,107.66-63.67,137.82-65.39,44.85-153.08,31.06-202.31-30.32,5.95-1,34-12.9,34-19v-25.5c28.32,17.19,62.95,13.33,86-10.5v-22.5c21.58,10.65,43.3,14.04,65.68,3.18,4.1-1.99,20.32-12.4,20.32-16.68v-21.5Z"/>
    <path class="st0" d="M268,115c11.57.55,14.11,1.19,21.21,2.29,7.92,1.23,16.97,3.83,24.56,6.44,4.19,1.44,23.03,8.62,24.04,11.96l-.3,127.31c-20,16.86-49.86,16.98-69.51-.51V115Z"/>
    <path class="st2" d="M167,334c-6.41,5.21-14.64,8.3-22.95,9.55-3.35.5-5.03,1.43-7.52-1.59-3.68-4.45-8.8-16.3-11.02-21.98-23.11-59.21-7.45-127.44,41.48-167.98v182Z"/>
    <path class="st3" d="M353,145c30,21.12,50.56,54.49,58.02,90.46-19.04,9.37-41.76,4.91-58.02-7.96v-82.5Z"/>
    <path class="st4" d="M183.08,140.02l-.09,154.2c8.29,8.51,21.27,14,35.89,14s27.6-5.49,35.89-14l.09-178.99c-26.44,1.97-50.96,10.83-71.77,24.78Z"/>
  </g>
  <g>
    <path d="M3499.32,413.83c-3.36,3.52-5.1,9.17-11.12,7.09l-57.01-43.9c-1.2-.55-11.55-.59-13.33-.35-2.31.32-6.15,3.82-8.27,5.35-17,12.34-33.02,26.14-50,38.53-1.55.96-3.51.95-5.21.43-2.42-.75-10.84-11.23-6.78-14.27l38.4-30.01h-27.56c-1.58,0-4.6-3.26-4.07-5.22l.32-103.73,2.79-2.78h129.5c2.68.83,3.49,4.36,3.71,6.81,1.1,12.4.22,26.47.57,39.04.47,17.11.87,34.19,1.24,51.36.06,2.93,1.77,10.08.07,12.4-.24.33-3.25,2.12-3.46,2.12h-27.56l37.78,29.09v8.04ZM3378.56,281.71v14.54l54.5,3.4c.53.31.93.76,1.11,1.36,1.21,4.03-4.08,17.68-1.74,19.69.51.43,1.65.52,2.32.77l32.98,1.39c.76-.77-.6-11.88-.65-13.9-.2-8.03.6-18.19-.63-25.98-.54-3.43-3.39-4.42-6.44-4.7-24.12-2.26-51.72,1.75-76.21,0-1.79.09-4.86,1.63-5.25,3.42ZM3378.56,310.48v49.2c0,.85,4.45,3.91,5.88,3.4,25.05-1.58,52.69,2.11,77.43.02,4.34-.37,6.69-1.22,7.13-5.87.58-6.12-1.6-13.73-.64-20.15l-52.21-2.6c-.93-.33-1.58-1.05-1.67-2.05-.37-4.13,4.01-14.3,2.98-17.8-.17-.57-.6-1.11-1.13-1.37l-37.77-2.79Z"/>
    <path d="M2478.59,66.84c166.37-9.26,280.01,165.47,199.86,312.97-37.75,69.48-107.66,109.12-186.39,109.54-99.36.52-185.55-67.9-206.88-165.24-5.01-22.88-5.45-62.41-1.25-85.42,17.11-93.61,99.33-166.53,194.65-171.84ZM2377.96,233.3c-2.4,3.03-2.78,19.18-4.54,23.69-.18,2.13,1.09,4.1,2.93,5.1l95.24,6.32c3.59.45,6.26,1.22,7.47,4.94l-7.17,40.56c.34,3.8,3.13,4.89,6.53,5.23,15.59,1.57,33.1,1.07,48.94,1.84,23.26,1.13,46.64,3.03,69.93,3.76,3.2.1,6.45.75,8.09-2.49.99-1.95,5.8-22.89,5.82-25.16.05-5.72-11.03-3.72-15.15-3.92-5.91-.28-12-1-17.91-1.29-19.94-.96-41.67-.5-61.33-2.46-3.91-.39-7.07-2.21-7.15-6.45l6.79-38.36c-.53-4.6-4.31-5.56-8.32-5.91-24.47-2.17-50.26-2.41-74.92-3.73-16.2-.87-32.64-2.5-48.9-3.11-1.9-.07-5.06-.19-6.35,1.43Z"/>
    <path d="M3083.77,376.7l38.07,29.71c3.49,3.4-2.25,11.34-4.93,13.62-3.13,2.65-5.8.98-8.56-.75-18-11.23-35.2-29.19-53.13-40.98-4.44-2.92-11.33-1.44-16.64-1.27l-58.06,44.09c-3.59,2.39-10.54-6.65-11.17-8.99-.49-1.82-.32-4.16.79-5.72l38.08-29.72h-27.56c-1.15,0-4.48-3.61-4.04-5.25l-.02-100.92c.08-2.56,1.11-4.85,3.59-5.68l127.46-.2c6.81.67,4.94,8.51,5.23,13.34,1.6,26.09,1.98,53.64,2.5,79.81.08,3.98.6,12.02-.04,15.48-.27,1.45-2.79,3.42-4.01,3.42h-27.56ZM3000.79,282.33c-.8,3.69.59,9.91,0,13.92l54.97,3.5c.36.11.61.32.81.63,1.72,2.63-3.08,15.35-2.56,19.05.21,1.47,1.53,1.91,2.86,2.14l33.09,1.28c-.13-5.26.15-10.55.03-15.81-.04-1.76-.63-3.27-.67-4.9-.12-4.59,1.04-18.97-1.55-21.98-.72-.84-2.19-1.31-3.21-1.73l-78.52-.16c-1.86-.2-4.91,2.45-5.25,4.04ZM3000.79,310.48v48.58c0,2.69,4.98,3.86,7.1,4.04,24.9,2.1,52.78-1.57,78-.07,1.28-.18,4.4-1.36,4.9-2.57,2.16-5.22-1.01-17.41-.2-23.37l-52.65-2.77c-.69-.64-1.04-1.42-1.04-2.36,0-4.57,3.61-12.4,3.24-16.85-.07-.85-.5-1.75-1.37-2.04l-37.98-2.58Z"/>
    <path d="M3495.4,239.51c3.21,3.51,1.58,12.57-4.45,12.18l-137-.48c-4.04-1.34-4.82-7.19-2.9-10.61,1.41-2.51,4.12-2.95,6.74-3.17,15.83-1.34,33.56,1.02,49.6.05,2.3-.03,3.16-2.01,3.39-4.04.32-2.74.65-14.89-1.87-16.11l-46.08-.36c-7.64-.91-7.26-13.65.62-14.12l45.03-.17c3.2-.96,2.56-12.04,2.31-15.07-.21-2.51-.5-4.88-3.47-5.2l-53.09-.17c-5.24-1.17-6.16-12.64,1.09-13.5,15.62-1.84,34.82,1.41,50.82.04,3.27-.28,4.25-1.17,4.64-4.65.83-7.51-.9-16.69-.03-24.16.21-1.77.93-3.43,2.65-4.16,1.84-.78,17.14-.83,18.9-.01,1.29.6,2.37,2.85,2.58,4.23,1.13,7.37-.85,17.15.03,24.72.4,3.49,2.09,3.77,5.25,4.04,16.86,1.39,35.57-1.12,52.63.01,6.15.96,5.51,12.67-.62,13.54h-53.88c-2.03.13-3.16,1.47-3.41,3.41-.29,2.24-.23,14.14.49,15.67.26.56.56,1.07,1.19,1.28l50.63.16c7.96.4,8.36,13.23.62,14.12l-50.59.19c-.55.16-1.43.9-1.72,1.38-.97,1.63-.99,16.37.09,17.94.79,1.16,2.65,1.46,3.98,1.59,16.4,1.71,36.54-1.99,52.66-.03,1.05.13,2.49.7,3.18,1.46Z"/>
    <path d="M2981.78,215.61c-3.34-3.12-2.47-11.59,2.86-12.53,14.41-1.4,30.09.94,44.35-.24,1.04-.09,2.82-.09,3.43-1.06.84-1.33.93-15.98.25-17.52-.26-.59-1.03-1.13-1.55-1.55l-53.51-.36c-6.69-.77-6.66-12.91-.05-13.58,16-1.61,34.74,1.51,50.82.03,1.72-.16,3.35-.26,4.16-2.03,1.96-4.28-.47-21.16.49-27.35.25-1.63,1.41-3.28,3.03-3.78,2.03-.63,16.68-.57,18.45.19s2.44,2.4,2.65,4.16c.88,7.54-1.12,17.41.02,24.73.28,1.78,1.37,3.1,3.03,3.78l56.73.87c3.88,2.67,3.54,11.79-1.4,12.89l-54.38.12c-2.72.32-3.71,1.28-4.03,4.02-.35,3.04-.88,15.34,2.3,16.29l49.41.13c8.16-.8,9.21,13.02,1.83,14.19l-51.68.34c-2.57,1.22-2.21,13.18-1.87,16.1.32,2.72,1.83,4.44,4.64,4.64l53.76.12c5.19,1.16,4.85,11.68-.14,13.21l-138.31.15c-7.48-3.2-5.31-14.93,3.56-14.13l50.19.02c1.44-.16,1.93-1.55,2.13-2.83.36-2.31.33-14.63-.54-16.09-.29-.48-1.17-1.22-1.72-1.38l-45.09-.11c-1.12-.13-3.02-.7-3.82-1.45Z"/>
    <path d="M3326.34,204.86c.91.99,1.45,3.05,1.47,4.42l-.5,129.52c-1.03,1.74-2.66,3.22-4.78,3.27-21.73-1.53-46.13,1.98-67.55.02-4.03-.37-5.7-2.47-5.88-6.5l.49-128.89c1.03-1.42,2.18-3.25,4.14-3.28l70.48.2c.67.36,1.63.72,2.12,1.27ZM3276.81,217.17c-3.66.82-3.97,4.53-4.16,7.56-1.97,32.22,1.36,66.49.15,98.91.47,2.61,2.04,4.18,4.64,4.64,3.57.64,18.43.64,22,0,2.62-.47,4.63-2.36,4.81-5.1l-.14-101.99c-.66-2-2.42-3.78-4.55-4.12-3.11-.49-19.93-.54-22.75.1Z"/>
    <path d="M2875.51,203.56l69.86-.15c1.81.05,3.34,1.05,4.17,2.65v133.37c-.75,1.64-3.61,2.68-5.39,2.65-21.56-1.53-45.7,1.93-66.94,0-2.19-.2-3.67-.55-4.77-2.66l-.5-130.76c-.11-2.43,1.23-4.43,3.57-5.1ZM2925.04,326.99c.54-.5.91-1.45,1.27-2.12l.03-104.3c-.54-1.89-1.97-3.19-3.93-3.5-3.21-.5-20.46-.55-23.36.1-2.05.46-3.51,2.44-3.55,4.5l.15,103.23c.5,2.23,3.04,3.3,5.12,3.55,4.41.52,16.02.5,20.46,0,1.15-.13,2.99-.69,3.82-1.45Z"/>
  </g>
</svg>