<?xml version="1.0" encoding="UTF-8"?>
<svg id="_レイヤー_1" data-name="レイヤー_1" xmlns="http://www.w3.org/2000/svg" version="1.1" viewBox="0 0 1920 530">
  <!-- Generator: Adobe Illustrator 29.4.0, SVG Export Plug-In . SVG Version: 2.1.0 Build 152)  -->
  <path d="M1559.32,413.83c-3.36,3.52-5.1,9.17-11.12,7.09l-57.01-43.9c-1.2-.55-11.55-.59-13.33-.35-2.31.32-6.15,3.82-8.27,5.35-17,12.34-33.02,26.14-50,38.53-1.55.96-3.51.95-5.21.43-2.42-.75-10.84-11.23-6.78-14.27l38.4-30.01h-27.56c-1.58,0-4.6-3.26-4.07-5.22l.32-103.73,2.79-2.78h129.5c2.68.83,3.49,4.36,3.71,6.81,1.1,12.4.22,26.47.57,39.04.47,17.11.87,34.19,1.24,51.36.06,2.93,1.77,10.08.07,12.4-.24.33-3.25,2.12-3.46,2.12h-27.56l37.78,29.09v8.04ZM1438.56,281.71v14.54l54.5,3.4c.53.31.93.76,1.11,1.36,1.21,4.03-4.08,17.68-1.74,19.69.51.43,1.65.52,2.32.77l32.98,1.39c.76-.77-.6-11.88-.65-13.9-.2-8.03.6-18.19-.63-25.98-.54-3.43-3.39-4.42-6.44-4.7-24.12-2.26-51.72,1.75-76.21,0-1.79.09-4.86,1.63-5.25,3.42ZM1438.56,310.48v49.2c0,.85,4.45,3.91,5.88,3.4,25.05-1.58,52.69,2.11,77.43.02,4.34-.37,6.69-1.22,7.13-5.87.58-6.12-1.6-13.73-.64-20.15l-52.21-2.6c-.93-.33-1.58-1.05-1.67-2.05-.37-4.13,4.01-14.3,2.98-17.8-.17-.57-.6-1.11-1.13-1.37l-37.77-2.79Z"/>
  <path d="M538.59,66.84c166.37-9.26,280.01,165.47,199.86,312.97-37.75,69.48-107.66,109.12-186.39,109.54-99.36.52-185.55-67.9-206.88-165.24-5.01-22.88-5.45-62.41-1.25-85.42,17.11-93.61,99.33-166.53,194.65-171.84ZM437.96,233.3c-2.4,3.03-2.78,19.18-4.54,23.69-.18,2.13,1.09,4.1,2.93,5.1l95.24,6.32c3.59.45,6.26,1.22,7.47,4.94l-7.17,40.56c.34,3.8,3.13,4.89,6.53,5.23,15.59,1.57,33.1,1.07,48.94,1.84,23.26,1.13,46.64,3.03,69.93,3.76,3.2.1,6.45.75,8.09-2.49.99-1.95,5.8-22.89,5.82-25.16.05-5.72-11.03-3.72-15.15-3.92-5.91-.28-12-1-17.91-1.29-19.94-.96-41.67-.5-61.33-2.46-3.91-.39-7.07-2.21-7.15-6.45l6.79-38.36c-.53-4.6-4.31-5.56-8.32-5.91-24.47-2.17-50.26-2.41-74.92-3.73-16.2-.87-32.64-2.5-48.9-3.11-1.9-.07-5.06-.19-6.35,1.43Z"/>
  <path d="M1143.77,376.7l38.07,29.71c3.49,3.4-2.25,11.34-4.93,13.62-3.13,2.65-5.8.98-8.56-.75-18-11.23-35.2-29.19-53.13-40.98-4.44-2.92-11.33-1.44-16.64-1.27l-58.06,44.09c-3.59,2.39-10.54-6.65-11.17-8.99-.49-1.82-.32-4.16.79-5.72l38.08-29.72h-27.56c-1.15,0-4.48-3.61-4.04-5.25l-.02-100.92c.08-2.56,1.11-4.85,3.59-5.68l127.46-.2c6.81.67,4.94,8.51,5.23,13.34,1.6,26.09,1.98,53.64,2.5,79.81.08,3.98.6,12.02-.04,15.48-.27,1.45-2.79,3.42-4.01,3.42h-27.56ZM1060.79,282.33c-.8,3.69.59,9.91,0,13.92l54.97,3.5c.36.11.61.32.81.63,1.72,2.63-3.08,15.35-2.56,19.05.21,1.47,1.53,1.91,2.86,2.14l33.09,1.28c-.13-5.26.15-10.55.03-15.81-.04-1.76-.63-3.27-.67-4.9-.12-4.59,1.04-18.97-1.55-21.98-.72-.84-2.19-1.31-3.21-1.73l-78.52-.16c-1.86-.2-4.91,2.45-5.25,4.04ZM1060.79,310.48v48.58c0,2.69,4.98,3.86,7.1,4.04,24.9,2.1,52.78-1.57,78-.07,1.28-.18,4.4-1.36,4.9-2.57,2.16-5.22-1.01-17.41-.2-23.37l-52.65-2.77c-.69-.64-1.04-1.42-1.04-2.36,0-4.57,3.61-12.4,3.24-16.85-.07-.85-.5-1.75-1.37-2.04l-37.98-2.58Z"/>
  <path d="M1555.4,239.51c3.21,3.51,1.58,12.57-4.45,12.18l-137-.48c-4.04-1.34-4.82-7.19-2.9-10.61,1.41-2.51,4.12-2.95,6.74-3.17,15.83-1.34,33.56,1.02,49.6.05,2.3-.03,3.16-2.01,3.39-4.04.32-2.74.65-14.89-1.87-16.11l-46.08-.36c-7.64-.91-7.26-13.65.62-14.12l45.03-.17c3.2-.96,2.56-12.04,2.31-15.07-.21-2.51-.5-4.88-3.47-5.2l-53.09-.17c-5.24-1.17-6.16-12.64,1.09-13.5,15.62-1.84,34.82,1.41,50.82.04,3.27-.28,4.25-1.17,4.64-4.65.83-7.51-.9-16.69-.03-24.16.21-1.77.93-3.43,2.65-4.16,1.84-.78,17.14-.83,18.9-.01,1.29.6,2.37,2.85,2.58,4.23,1.13,7.37-.85,17.15.03,24.72.4,3.49,2.09,3.77,5.25,4.04,16.86,1.39,35.57-1.12,52.63.01,6.15.96,5.51,12.67-.62,13.54h-53.88c-2.03.13-3.16,1.47-3.41,3.41-.29,2.24-.23,14.14.49,15.67.26.56.56,1.07,1.19,1.28l50.63.16c7.96.4,8.36,13.23.62,14.12l-50.59.19c-.55.16-1.43.9-1.72,1.38-.97,1.63-.99,16.37.09,17.94.79,1.16,2.65,1.46,3.98,1.59,16.4,1.71,36.54-1.99,52.66-.03,1.05.13,2.49.7,3.18,1.46Z"/>
  <path d="M1041.78,215.61c-3.34-3.12-2.47-11.59,2.86-12.53,14.41-1.4,30.09.94,44.35-.24,1.04-.09,2.82-.09,3.43-1.06.84-1.33.93-15.98.25-17.52-.26-.59-1.03-1.13-1.55-1.55l-53.51-.36c-6.69-.77-6.66-12.91-.05-13.58,16-1.61,34.74,1.51,50.82.03,1.72-.16,3.35-.26,4.16-2.03,1.96-4.28-.47-21.16.49-27.35.25-1.63,1.41-3.28,3.03-3.78,2.03-.63,16.68-.57,18.45.19s2.44,2.4,2.65,4.16c.88,7.54-1.12,17.41.02,24.73.28,1.78,1.37,3.1,3.03,3.78l56.73.87c3.88,2.67,3.54,11.79-1.4,12.89l-54.38.12c-2.72.32-3.71,1.28-4.03,4.02-.35,3.04-.88,15.34,2.3,16.29l49.41.13c8.16-.8,9.21,13.02,1.83,14.19l-51.68.34c-2.57,1.22-2.21,13.18-1.87,16.1.32,2.72,1.83,4.44,4.64,4.64l53.76.12c5.19,1.16,4.85,11.68-.14,13.21l-138.31.15c-7.48-3.2-5.31-14.93,3.56-14.13l50.19.02c1.44-.16,1.93-1.55,2.13-2.83.36-2.31.33-14.63-.54-16.09-.29-.48-1.17-1.22-1.72-1.38l-45.09-.11c-1.12-.13-3.02-.7-3.82-1.45Z"/>
  <path d="M1386.34,204.86c.91.99,1.45,3.05,1.47,4.42l-.5,129.52c-1.03,1.74-2.66,3.22-4.78,3.27-21.73-1.53-46.13,1.98-67.55.02-4.03-.37-5.7-2.47-5.88-6.5l.49-128.89c1.03-1.42,2.18-3.25,4.14-3.28l70.48.2c.67.36,1.63.72,2.12,1.27ZM1336.81,217.17c-3.66.82-3.97,4.53-4.16,7.56-1.97,32.22,1.36,66.49.15,98.91.47,2.61,2.04,4.18,4.64,4.64,3.57.64,18.43.64,22,0,2.62-.47,4.63-2.36,4.81-5.1l-.14-101.99c-.66-2-2.42-3.78-4.55-4.12-3.11-.49-19.93-.54-22.75.1Z"/>
  <path d="M935.51,203.56l69.86-.15c1.81.05,3.34,1.05,4.17,2.65v133.37c-.75,1.64-3.61,2.68-5.39,2.65-21.56-1.53-45.7,1.93-66.94,0-2.19-.2-3.67-.55-4.77-2.66l-.5-130.76c-.11-2.43,1.23-4.43,3.57-5.1ZM985.04,326.99c.54-.5.91-1.45,1.27-2.12l.03-104.3c-.54-1.89-1.97-3.19-3.93-3.5-3.21-.5-20.46-.55-23.36.1-2.05.46-3.51,2.44-3.55,4.5l.15,103.23c.5,2.23,3.04,3.3,5.12,3.55,4.41.52,16.02.5,20.46,0,1.15-.13,2.99-.69,3.82-1.45Z"/>
</svg>